<svg xmlns="http://www.w3.org/2000/svg" width="33px" height="33px" viewBox="0 0 352 447.922">
  <g id="Group_12015" data-name="Group 12015" transform="translate(-7839 845)">
    <path id="Path_21441" data-name="Path 21441" d="M0,0H236.466L307,99.86V397H0Z" transform="translate(7863 -821)" fill="#ffce47"/>
    <path id="Path_21442" data-name="Path 21442" d="M8101.555-815.373v78.387H8166Z" fill="#ffebb4"/>
    <path id="Path_0_78_" data-name="Path 0 (78)" d="M154.8.1C250.3,0,268.4.2,270.7,1.4a21.278,21.278,0,0,1,5.4,4.3c1.4,1.5,18.8,24.2,38.5,50.3,19.8,26.1,36.5,48.7,37.2,50.3.9,2.1,1.2,35.6,1.2,151,0,128.7-.2,149-1.5,154a63.85,63.85,0,0,1-4.2,11,57.677,57.677,0,0,1-7.8,10.7,58.867,58.867,0,0,1-11.1,8.7,81.076,81.076,0,0,1-11.4,4.7c-4.9,1.5-19.5,1.6-140,1.6s-135.1-.1-140-1.6a81.073,81.073,0,0,1-11.4-4.7A58.866,58.866,0,0,1,14.5,433a55.925,55.925,0,0,1-7.7-10.5A74.16,74.16,0,0,1,2.6,412C1.1,407,1,389.5,1,225.5,1,105.2,1.3,42.7,2,39A63.262,63.262,0,0,1,6.1,27a54.133,54.133,0,0,1,8.4-12A55.647,55.647,0,0,1,25.1,6.6,64.046,64.046,0,0,1,36,1.9C41.1.2,49.6.1,154.7.1ZM36.4,37.9a18.96,18.96,0,0,0-2.8,6.4c-.3,1.7-.4,83.8-.3,182.4l.3,179.2a44,44,0,0,0,6.9,7.6c2.7,2,4.3,2,136.6,2s133.9,0,136.6-2a36.274,36.274,0,0,0,4.8-4.8l2.1-2.8.5-277.9c-56-.5-56.6-.5-61.5-3a38.211,38.211,0,0,1-9-6.5,40.374,40.374,0,0,1-6.5-9l-2.5-5L241.1,32c-176.6.1-196.2.3-198.9,1.4a14.749,14.749,0,0,0-5.8,4.5ZM273.1,96h32c-15.7-20.5-22.6-29.8-25.4-33.8-2.9-3.9-5.5-7.2-5.9-7.2s-.7,9.2-.7,20.5Z" transform="translate(7838 -845.078)" fill-rule="evenodd"/>
  </g>
</svg>
