<?xml version="1.0" standalone="no"?>
<!DOCTYPE svg PUBLIC "-//W3C//DTD SVG 20010904//EN"
 "http://www.w3.org/TR/2001/REC-SVG-20010904/DTD/svg10.dtd">
<svg version="1.0" xmlns="http://www.w3.org/2000/svg"
 width="33px" height="33px" viewBox="0 0 512.000000 512.000000"
 preserveAspectRatio="xMidYMid meet">

<g transform="translate(0.000000,512.000000) scale(0.100000,-0.100000)"
fill="#000000" stroke="none">
<path d="M370 4629 c-14 -6 -36 -20 -48 -32 -55 -51 -52 29 -52 -1400 l0
-1324 22 -33 c52 -75 50 -75 341 -78 l262 -3 205 -204 c146 -145 214 -205 235
-210 17 -4 35 -8 42 -10 6 -2 29 1 50 6 30 9 79 51 243 215 l205 204 158 0
157 0 0 -368 c0 -415 0 -416 76 -459 l39 -23 575 0 575 0 145 -146 c80 -80
157 -152 172 -160 32 -17 101 -18 131 -3 12 6 90 78 172 160 l150 148 265 3
c256 3 266 4 296 25 67 48 64 -4 64 985 l0 893 -23 39 c-43 76 -44 76 -459 76
l-368 0 -2 803 -3 804 -27 35 c-56 74 102 68 -1835 67 -1130 0 -1747 -4 -1763
-10z m3310 -1429 l0 -1120 -947 0 c-905 0 -950 -1 -988 -19 -24 -11 -104 -83
-200 -180 l-160 -161 -170 169 c-93 93 -183 174 -198 180 -17 7 -111 11 -228
11 l-199 0 0 1120 0 1120 1545 0 1545 0 0 -1120z m850 -1280 l0 -690 -187 0
c-105 0 -205 -5 -227 -11 -30 -8 -69 -40 -158 -127 l-118 -115 -118 115 c-89
87 -128 119 -158 127 -26 7 -210 11 -546 11 l-508 0 0 265 0 265 689 0 688 0
33 23 c18 12 43 35 54 50 20 27 21 41 24 403 l3 374 264 0 265 0 0 -690z"/>
<path d="M1234 3779 c-104 -30 -146 -168 -77 -249 52 -63 17 -60 766 -60 l684
0 33 23 c47 31 71 67 77 115 7 55 -26 123 -75 154 l-37 23 -670 2 c-387 1
-683 -2 -701 -8z"/>
<path d="M1200 2908 c-47 -32 -71 -68 -77 -116 -7 -55 26 -123 75 -154 37 -23
39 -23 402 -23 363 0 365 0 402 23 49 31 82 99 75 154 -6 48 -30 84 -77 116
-33 22 -36 22 -400 22 -364 0 -367 0 -400 -22z"/>
</g>
</svg>
