<svg version="1.2" xmlns="http://www.w3.org/2000/svg" viewBox="0 0 480 481" width="480" height="481"><style>.a{opacity:1}</style><path fill-rule="evenodd" fill="#42526e" class="a" d="m340.5-0.1l3.4 2.3c1.9 1.3 4.4 3.6 5.5 5.1 2.1 2.8 2.1 3 2.6 216.7h73.5l-20.7-20.7c-17.8-18-20.8-21.4-21.9-25.3-1-3.6-1-5.3 0.1-8.5 0.7-2.2 2.4-5.2 3.9-6.6 1.4-1.5 4.4-3.2 6.6-3.9 3.2-1.1 4.9-1.1 8.5-0.1 4 1.1 8.4 5.2 40.7 37.4 30.2 30.2 36.3 36.8 36.8 39.7 0.4 1.9 0.4 5.3 0 7.5-0.6 3.6-4 7.4-36.8 40.2-32.3 32.2-36.7 36.3-40.7 37.4-3.6 1-5.3 1-8.5-0.1-2.2-0.7-5.2-2.4-6.6-3.9-1.5-1.4-3.2-4.4-3.9-6.6-1.1-3.2-1.1-4.9-0.1-8.5 1.1-3.9 4.1-7.3 42.6-46h-73.5l-0.3 106.9c-0.2 106.8-0.2 107-2.3 109.8-1.1 1.5-3.6 3.8-8.9 7.4h-329l-3.4-2.3c-1.9-1.3-4.4-3.6-7.6-7.9l-0.3-147.2c-0.1-81 0-148.8 0.3-150.7 0.5-3 12.1-14.9 82.8-85.9 45.2-45.2 83.5-83.2 85.2-84.2 2.9-1.8 6.3-1.9 172-2zm-148.7 107c-0.3 74.6-0.3 75-2.4 77.8-1.2 1.5-3.4 3.7-4.8 4.8-2.7 2-4.5 2-77.7 2.2l-74.9 0.3v256h288v-192c-116.1-0.5-117.9-0.6-120.6-2.5-1.4-1.1-3.6-3.3-4.8-4.8-1.6-2.2-2.1-4.3-2.1-8.7 0-4.4 0.5-6.5 2.1-8.7 1.2-1.5 3.4-3.7 4.8-4.8 2.7-1.9 4.5-2 61.7-2.3l58.9-0.2v-192h-128zm-137.2 53.1h105.5c0-81.4-0.1-105-0.3-105-0.1 0-23.9 23.6-52.7 52.5z"/></svg>